<svg id="Camada_1" data-name="Camada 1" xmlns="http://www.w3.org/2000/svg" xmlns:xlink="http://www.w3.org/1999/xlink" viewBox="0 0 1042.4 282.64"><defs><style>.cls-1,.cls-4{fill:#fff;}.cls-2{fill:url(#Gradiente_sem_nome_47);}.cls-3{opacity:0.7;}.cls-4{stroke:#b3b3b3;stroke-width:1px;}.cls-12,.cls-13,.cls-4,.cls-5,.cls-6,.cls-7{stroke-miterlimit:10;}.cls-5,.cls-6,.cls-7,.cls-8{fill:#1f273d;}.cls-13,.cls-5,.cls-6,.cls-7{stroke:#dcdde0;}.cls-5{stroke-width:5.07px;}.cls-6{stroke-width:3.58px;}.cls-7{stroke-width:2.84px;}.cls-9{fill:#dcdde0;}.cls-10{fill:#5d5d5d;}.cls-11,.cls-12,.cls-13{fill:none;}.cls-11,.cls-12{stroke:#ff4c0c;}.cls-11,.cls-14{stroke-linecap:round;stroke-linejoin:round;stroke-width:3.22px;}.cls-12,.cls-13{stroke-width:4.83px;}.cls-14{fill:#dee1e3;stroke:#dee1e3;}.cls-15{fill:#f7f7f7;}.cls-16{fill:#f6a2aa;}.cls-17{fill:#ffd689;}.cls-18{fill:#305ebc;}.cls-19{fill:#177aff;}.cls-20{fill:#ededee;}</style><radialGradient id="Gradiente_sem_nome_47" cx="362.37" cy="691.7" r="653.77" gradientTransform="translate(28.66 -113.7) scale(1.36 0.37)" gradientUnits="userSpaceOnUse"><stop offset="0.19" stop-color="#fff"/><stop offset="0.39" stop-color="#edf1f3"/><stop offset="0.77" stop-color="#c0cdd5"/><stop offset="1" stop-color="#a2b6c1"/></radialGradient></defs><title>Prancheta 15</title><rect class="cls-1" y="35.28" width="1042.4" height="212.08"/><rect class="cls-2" y="-0.05" width="1042.4" height="282.75"/><g class="cls-3"><path class="cls-4" d="M923.29,193.29a10.38,10.38,0,0,1-11,9.65l-97.67-6.42a10.37,10.37,0,0,1-9.64-11l9.86-150.1a10.37,10.37,0,0,1,11-9.64l97.67,6.42a10.36,10.36,0,0,1,9.64,11Z"/><line class="cls-5" x1="828.67" y1="63.49" x2="916.32" y2="69.25"/><line class="cls-5" x1="829.33" y1="53.45" x2="916.98" y2="59.21"/><line class="cls-5" x1="828.01" y1="73.53" x2="915.66" y2="79.29"/><line class="cls-5" x1="827.36" y1="83.57" x2="915" y2="89.33"/><line class="cls-5" x1="826.7" y1="93.61" x2="914.34" y2="99.36"/><line class="cls-5" x1="826.04" y1="103.65" x2="913.68" y2="109.4"/><line class="cls-5" x1="825.38" y1="113.69" x2="913.02" y2="119.44"/><line class="cls-6" x1="822.01" y1="164.97" x2="865.83" y2="167.85"/><line class="cls-7" x1="821.61" y1="171.01" x2="849.21" y2="172.82"/></g><path class="cls-4" d="M931.3,176a10.38,10.38,0,0,1-7.92,12.3L827.71,209A10.37,10.37,0,0,1,815.42,201L783.63,54a10.37,10.37,0,0,1,7.92-12.29L887.22,21A10.37,10.37,0,0,1,899.51,29Z"/><line class="cls-5" x1="804.64" y1="77.18" x2="890.5" y2="58.62"/><line class="cls-5" x1="802.52" y1="67.35" x2="888.37" y2="48.79"/><line class="cls-5" x1="806.77" y1="87.02" x2="892.62" y2="68.45"/><line class="cls-5" x1="808.9" y1="96.85" x2="894.75" y2="78.29"/><line class="cls-5" x1="811.02" y1="106.68" x2="896.88" y2="88.12"/><line class="cls-5" x1="813.15" y1="116.52" x2="899" y2="97.96"/><line class="cls-5" x1="815.28" y1="126.35" x2="901.13" y2="107.79"/><line class="cls-6" x1="826.14" y1="176.58" x2="869.06" y2="167.3"/><line class="cls-7" x1="827.42" y1="182.5" x2="854.45" y2="176.65"/><rect class="cls-8" x="837.15" y="68.41" width="133.15" height="192.16" rx="10.34" ry="10.34"/><rect class="cls-9" x="844.45" y="78.94" width="118.56" height="171.1" rx="10.34" ry="10.34"/><path class="cls-1" d="M932.85,244H856.52a10,10,0,0,1-10-10V88.92a10,10,0,0,1,10-10h94.42a10,10,0,0,1,10,10V214.26"/><path class="cls-10" d="M867.58,82.84c0,2.33-1.2,4.24-2.65,4.24s-2.65-1.91-2.65-4.24V65.45c0-2.34,1.19-4.24,2.65-4.24s2.65,1.9,2.65,4.24Z"/><path class="cls-10" d="M883.09,82.84c0,2.33-1.19,4.24-2.65,4.24s-2.65-1.91-2.65-4.24V65.45c0-2.34,1.2-4.24,2.65-4.24s2.65,1.9,2.65,4.24Z"/><path class="cls-10" d="M898.62,82.84c0,2.33-1.2,4.24-2.65,4.24s-2.65-1.91-2.65-4.24V65.45c0-2.34,1.19-4.24,2.65-4.24s2.65,1.9,2.65,4.24Z"/><path class="cls-10" d="M914.14,82.84c0,2.33-1.19,4.24-2.65,4.24s-2.65-1.91-2.65-4.24V65.45c0-2.34,1.19-4.24,2.65-4.24s2.65,1.9,2.65,4.24Z"/><path class="cls-10" d="M929.66,82.84c0,2.33-1.2,4.24-2.65,4.24s-2.65-1.91-2.65-4.24V65.45c0-2.34,1.19-4.24,2.65-4.24s2.65,1.9,2.65,4.24Z"/><path class="cls-10" d="M945.18,82.84c0,2.33-1.19,4.24-2.65,4.24s-2.65-1.91-2.65-4.24V65.45c0-2.34,1.2-4.24,2.65-4.24s2.65,1.9,2.65,4.24Z"/><polyline class="cls-11" points="861.3 123.36 865.87 129 874.73 120.14"/><line class="cls-12" x1="887.62" y1="124.57" x2="949.4" y2="124.57"/><polyline class="cls-11" points="861.3 146.76 865.87 152.4 874.73 143.54"/><line class="cls-12" x1="887.62" y1="147.97" x2="949.4" y2="147.97"/><polyline class="cls-11" points="861.3 170.17 865.87 175.81 874.73 166.94"/><line class="cls-12" x1="887.62" y1="171.37" x2="949.4" y2="171.37"/><polyline class="cls-11" points="861.3 193.57 865.87 199.21 874.73 190.35"/><line class="cls-12" x1="887.62" y1="194.78" x2="949.4" y2="194.78"/><line class="cls-13" x1="887.62" y1="218.18" x2="949.4" y2="218.18"/><path class="cls-14" d="M874.46,217.63a6.58,6.58,0,1,1-6.58-6.58A6.58,6.58,0,0,1,874.46,217.63Z"/><path class="cls-15" d="M932.85,244V224.24a10,10,0,0,1,10-10h18.09"/><rect class="cls-16" x="949.02" y="208.2" width="11.1" height="9.03" rx="3.7" ry="3.7" transform="translate(359.26 988.64) rotate(-65.07)"/><path class="cls-17" d="M999.14,119.92l-1,8.3a1.44,1.44,0,0,1-2.06,1.22l-4.73-1.91a1.33,1.33,0,0,1-.53-2.23l5.57-6.43"/><path class="cls-18" d="M996.4,118.87l2-2.33c.71-.82,1.18-.61,1.05.47l-.34,2.91"/><path class="cls-19" d="M954.17,210a1.56,1.56,0,1,1-2.73-1.27l38.34-82.46a1.56,1.56,0,1,1,2.73,1.26Z"/><path class="cls-18" d="M956.9,211.27a1.56,1.56,0,1,1-2.73-1.27l38.34-82.47a1.56,1.56,0,1,1,2.73,1.27Z"/><path class="cls-19" d="M959.63,212.54a1.56,1.56,0,1,1-2.73-1.27l38.34-82.47a1.56,1.56,0,1,1,2.73,1.27Z"/><rect class="cls-20" x="953.18" y="206.8" width="4.08" height="9.03" transform="translate(360.87 988.38) rotate(-65.06)"/></svg>