<svg width="40" height="40" viewBox="0 0 40 40" fill="none" xmlns="http://www.w3.org/2000/svg">
<rect width="40" height="40" rx="6" fill="#B9E5FF"/>
<path d="M21.9941 29H7.67383C7.83789 27.5859 8.33398 26.2578 9.16211 25.0156C9.99805 23.7656 11.5605 22.293 13.8496 20.5977C15.248 19.5586 16.1426 18.7695 16.5332 18.2305C16.9238 17.6914 17.1191 17.1797 17.1191 16.6953C17.1191 16.1719 16.9238 15.7266 16.5332 15.3594C16.1504 14.9844 15.666 14.7969 15.0801 14.7969C14.4707 14.7969 13.9707 14.9883 13.5801 15.3711C13.1973 15.7539 12.9395 16.4297 12.8066 17.3984L8.02539 17.0117C8.21289 15.668 8.55664 14.6211 9.05664 13.8711C9.55664 13.1133 10.2598 12.5352 11.166 12.1367C12.0801 11.7305 13.3418 11.5273 14.9512 11.5273C16.6309 11.5273 17.9355 11.7188 18.8652 12.1016C19.8027 12.4844 20.5371 13.0742 21.0684 13.8711C21.6074 14.6602 21.877 15.5469 21.877 16.5312C21.877 17.5781 21.5684 18.5781 20.9512 19.5312C20.3418 20.4844 19.2285 21.5312 17.6113 22.6719C16.6504 23.3359 16.0059 23.8008 15.6777 24.0664C15.3574 24.332 14.9785 24.6797 14.541 25.1094H21.9941V29Z" fill="#5E6366"/>
<path d="M23.4684 15.9102C23.4684 15.168 23.6363 14.4492 23.9723 13.7539C24.3082 13.0508 24.8277 12.5039 25.5309 12.1133C26.234 11.7227 27.0699 11.5273 28.0387 11.5273C29.3824 11.5273 30.4488 11.9297 31.2379 12.7344C32.0348 13.5391 32.4332 14.6094 32.4332 15.9453C32.4332 17.2344 32.0309 18.2812 31.2262 19.0859C30.4215 19.8906 29.3629 20.293 28.0504 20.293C27.0113 20.293 26.1402 20.082 25.4371 19.6602C24.734 19.2305 24.2301 18.6641 23.9254 17.9609C23.6207 17.2578 23.4684 16.5742 23.4684 15.9102ZM26.3746 15.9102C26.3746 16.7539 26.5426 17.3789 26.8785 17.7852C27.1363 18.0977 27.5152 18.2539 28.0152 18.2539C28.4605 18.2539 28.8277 18.0742 29.1168 17.7148C29.4059 17.3555 29.5504 16.7539 29.5504 15.9102C29.5504 15.0508 29.402 14.4414 29.1051 14.082C28.816 13.7148 28.4371 13.5312 27.9684 13.5312C27.4918 13.5312 27.1051 13.7148 26.8082 14.082C26.5191 14.4414 26.3746 15.0508 26.3746 15.9102Z" fill="#5E6366"/>
</svg>
