<svg width="40" height="40" viewBox="0 0 40 40" fill="none" xmlns="http://www.w3.org/2000/svg">
<rect width="40" height="40" rx="6" fill="#B9E5FF"/>
<path d="M18.8418 11.5273V29H14.0137V17.5508C13.2324 18.1445 12.4746 18.625 11.7402 18.9922C11.0137 19.3594 10.0996 19.7109 8.99805 20.0469V16.1328C10.623 15.6094 11.8848 14.9805 12.7832 14.2461C13.6816 13.5117 14.3848 12.6055 14.8926 11.5273H18.8418Z" fill="#5E6366"/>
<path d="M23.4684 15.9102C23.4684 15.168 23.6363 14.4492 23.9723 13.7539C24.3082 13.0508 24.8277 12.5039 25.5309 12.1133C26.234 11.7227 27.0699 11.5273 28.0387 11.5273C29.3824 11.5273 30.4488 11.9297 31.2379 12.7344C32.0348 13.5391 32.4332 14.6094 32.4332 15.9453C32.4332 17.2344 32.0309 18.2812 31.2262 19.0859C30.4215 19.8906 29.3629 20.293 28.0504 20.293C27.0113 20.293 26.1402 20.082 25.4371 19.6602C24.734 19.2305 24.2301 18.6641 23.9254 17.9609C23.6207 17.2578 23.4684 16.5742 23.4684 15.9102ZM26.3746 15.9102C26.3746 16.7539 26.5426 17.3789 26.8785 17.7852C27.1363 18.0977 27.5152 18.2539 28.0152 18.2539C28.4605 18.2539 28.8277 18.0742 29.1168 17.7148C29.4059 17.3555 29.5504 16.7539 29.5504 15.9102C29.5504 15.0508 29.402 14.4414 29.1051 14.082C28.816 13.7148 28.4371 13.5312 27.9684 13.5312C27.4918 13.5312 27.1051 13.7148 26.8082 14.082C26.5191 14.4414 26.3746 15.0508 26.3746 15.9102Z" fill="#5E6366"/>
</svg>
