<svg width="30" height="30" viewBox="0 0 30 30" fill="none" xmlns="http://www.w3.org/2000/svg">
<path d="M14.5055 0C6.49303 0 0 6.49303 0 14.5055C0 22.5179 6.49303 29.0109 14.5055 29.0109C22.5179 29.0109 29.0109 22.5179 29.0109 14.5055C29.0109 6.49303 22.507 0 14.5055 0ZM11.1715 21.0422H8.44968V18.3204L16.484 10.2752L19.2058 12.997L11.1715 21.0422ZM21.3046 10.8982L19.971 12.2318L17.2492 9.50999L18.5827 8.1764C18.8669 7.8922 19.337 7.8922 19.6103 8.1764L21.3046 9.87071C21.5888 10.144 21.5888 10.614 21.3046 10.8982Z" fill="#10A3FB"/>
</svg>
