<svg width="18" height="20" viewBox="0 0 18 20" fill="none" xmlns="http://www.w3.org/2000/svg">
<path d="M16 0H2C0.89 0 0 0.857143 0 1.90476V15.2381C0 16.2857 0.89 17.1429 2 17.1429H6L9 20L12 17.1429H16C17.1 17.1429 18 16.2857 18 15.2381V1.90476C18 0.857143 17.1 0 16 0ZM9 3.14286C10.49 3.14286 11.7 4.29524 11.7 5.71429C11.7 7.13333 10.49 8.28571 9 8.28571C7.51 8.28571 6.3 7.13333 6.3 5.71429C6.3 4.29524 7.51 3.14286 9 3.14286ZM15 13.3333H3V12.4762C3 10.5714 7 9.52381 9 9.52381C11 9.52381 15 10.5714 15 12.4762V13.3333Z" fill="#1E658F"/>
</svg>
