<svg width="33" height="34" viewBox="0 0 33 34" fill="none" xmlns="http://www.w3.org/2000/svg">
<g opacity="0.2">
<path d="M13.3138 7.37245C15.0793 7.37245 16.7725 8.0738 18.0209 9.32221C19.2693 10.5706 19.9707 12.2638 19.9707 14.0293C19.9707 15.7949 19.2693 17.4881 18.0209 18.7365C16.7725 19.9849 15.0793 20.6862 13.3138 20.6862C11.5483 20.6862 9.85506 19.9849 8.60665 18.7365C7.35824 17.4881 6.6569 15.7949 6.6569 14.0293C6.6569 12.2638 7.35824 10.5706 8.60665 9.32221C9.85506 8.0738 11.5483 7.37245 13.3138 7.37245ZM13.3138 24.0147C20.6697 24.0147 26.6276 26.9937 26.6276 30.6716V34H0V30.6716C0 26.9937 5.95792 24.0147 13.3138 24.0147Z" fill="white"/>
<path d="M26.9222 9.00212C26.3692 9.00212 25.8387 8.78241 25.4476 8.39132C25.0565 8.00023 24.8368 7.46979 24.8368 6.91671C24.8368 6.36362 25.0565 5.83319 25.4476 5.44209C25.8387 5.051 26.3692 4.83129 26.9222 4.83129C27.4753 4.83129 28.0058 5.051 28.3969 5.44209C28.788 5.83319 29.0077 6.36362 29.0077 6.91671C29.0077 7.46979 28.788 8.00023 28.3969 8.39132C28.0058 8.78241 27.4753 9.00212 26.9222 9.00212ZM31.3493 7.49466C31.3731 7.304 31.391 7.11333 31.391 6.91671C31.391 6.72008 31.3731 6.52346 31.3493 6.32087L32.6065 5.34966C32.7197 5.26029 32.7495 5.09941 32.678 4.96833L31.4863 2.90675C31.4148 2.77567 31.254 2.72204 31.1229 2.77567L29.6392 3.3715C29.3294 3.13912 29.0077 2.93654 28.6323 2.78758L28.4118 1.20862C28.388 1.06562 28.2629 0.958374 28.1139 0.958374H25.7306C25.5816 0.958374 25.4565 1.06562 25.4327 1.20862L25.2122 2.78758C24.8368 2.93654 24.5151 3.13912 24.2052 3.3715L22.7216 2.77567C22.5905 2.72204 22.4297 2.77567 22.3582 2.90675L21.1665 4.96833C21.089 5.09941 21.1248 5.26029 21.238 5.34966L22.4952 6.32087C22.4714 6.52346 22.4535 6.72008 22.4535 6.91671C22.4535 7.11333 22.4714 7.304 22.4952 7.49466L21.238 8.48375C21.1248 8.57312 21.089 8.734 21.1665 8.86508L22.3582 10.9267C22.4297 11.0577 22.5905 11.1054 22.7216 11.0577L24.2052 10.456C24.5151 10.6943 24.8368 10.8969 25.2122 11.0458L25.4327 12.6248C25.4565 12.7678 25.5816 12.875 25.7306 12.875H28.1139C28.2629 12.875 28.388 12.7678 28.4118 12.6248L28.6323 11.0458C29.0077 10.8909 29.3294 10.6943 29.6392 10.456L31.1229 11.0577C31.254 11.1054 31.4148 11.0577 31.4863 10.9267L32.678 8.86508C32.7495 8.734 32.7197 8.57312 32.6065 8.48375L31.3493 7.49466Z" fill="white"/>
</g>
</svg>
