<svg xmlns="http://www.w3.org/2000/svg" viewBox="0 0 929.51 254.04"><defs><style>.cls-1{isolation:isolate;}.cls-2{fill:#009bd9;}.cls-3{opacity:0.2;mix-blend-mode:multiply;}.cls-4{fill:#fff;}.cls-5{fill:#f39200;}</style></defs><title>Prancheta 12 cópia</title><g class="cls-1"><g id="Camada_1" data-name="Camada 1"><rect class="cls-2" x="206.33" y="15.82" width="226.9" height="226.9" rx="20.44" ry="20.44"/><rect class="cls-2" x="450.69" y="16.04" width="226.9" height="226.9" rx="20.44" ry="20.44"/><rect class="cls-2" x="694.38" y="16.04" width="226.9" height="226.9" rx="20.44" ry="20.44"/><path class="cls-3" d="M270.1,195.06l49.68,47.66h94s19.44-1.26,19.44-23.83V113L363.58,58.87l-69,3.07L288,88.72s4.55,23.74,9.09,25.76,18.6,11.62,22.69,12.63,28.34,13.13,28.34,13.13v21.22l-1.52,19.2-17.68,6.57L289,184.7Z"/><path class="cls-3" d="M514.46,195.06l49.69,47.66h94s19.44-1.26,19.44-23.83V105.43L623,63.74l-84.05-1.8-6.56,26.78s-19.56,41.14-15,43.16S528.42,166,532.51,167s18.69,15.15,18.69,15.15l26.09,3.57L591,180.66l-17.68,6.57-39.91-2.53Z"/><path class="cls-3" d="M755,210.26l33.83,32.46h113s19.44-1.26,19.44-23.83V109.94L858.52,63.51l-75.89-1.57-6.57,26.78s-19.56,41.14-15,43.16S772.11,166,776.2,167s.81,7.07.81,7.07l5.56,6.06,6.59.07L781,185l-3.91-.25Z"/><path class="cls-4" d="M265.34,189.26q-5.89-7.24-5.89-13T269.18,161q5.67-5.43,12-5.43t17.66,11.32a34.38,34.38,0,0,0,9.05,7.36q5.88,3.51,10.87,3.5,21,0,21.06-17.2,0-5.2-5.78-8.71a42.18,42.18,0,0,0-14.37-5.1,123.93,123.93,0,0,1-18.57-5.09,122.56,122.56,0,0,1-18.56-8.27q-8.61-4.74-14.37-15T262.39,93.5q0-19.92,14.83-34.75t40.41-14.82a82.36,82.36,0,0,1,24.79,3.51q11.2,3.51,15.5,7.12l5.66,4.31q7,6.56,7,11.09t-5.43,12.45q-7.69,11.32-15.85,11.32c-3.17,0-7.09-1.5-11.77-4.53a25.09,25.09,0,0,1-2.6-2.27A38,38,0,0,0,331.44,84q-4.76-2.94-12.12-2.94a20.44,20.44,0,0,0-12.22,3.51,11.33,11.33,0,0,0-4.87,9.74q0,6.21,5.77,10.07a35.77,35.77,0,0,0,14.38,5.2,170.13,170.13,0,0,1,18.79,4.2,115.88,115.88,0,0,1,18.79,6.9q8.61,4.06,14.37,14.15t5.78,24.79q0,14.71-5.89,25.92a44.69,44.69,0,0,1-15.39,17.31,70.19,70.19,0,0,1-39.16,12,76.33,76.33,0,0,1-20.16-2.6,54.16,54.16,0,0,1-15.39-6.46q-12-7.23-16.75-14Z"/><path class="cls-4" d="M577.25,114.91H617.1q12.21.45,14.93,6.33,2.28,4.31,2.27,12.68v49.81q0,7.23-6.34,13.81-19,19.68-57,19.69-33.75,0-58.64-25.47t-24.9-61.46q0-36,25.36-60.1T572.5,46.09q26.7,0,50.48,17.65,6.1,4.53,6.11,10.08t-5.21,12.79q-8.82,12-16.07,12-4.29,0-13.81-6.22t-22.64-6.23q-17.21,0-30.56,12.12T527.44,130A45.49,45.49,0,0,0,541,163.23q13.58,13.71,30.79,13.7a58.68,58.68,0,0,0,22.41-4.07V148.18H576.35c-4.68,0-8-.6-10-1.81a8.46,8.46,0,0,1-3.84-5.32,39.16,39.16,0,0,1-.91-9.51,36.68,36.68,0,0,1,1-9.62,7.5,7.5,0,0,1,3.73-5Q570.46,114.9,577.25,114.91Z"/><path class="cls-4" d="M873.68,82.53a59.82,59.82,0,0,1,5.89,26.72,59,59,0,0,1-5.89,26.59,52,52,0,0,1-15.16,18.9q-18.79,14.49-38.94,14.5h-28.3v25.58a64.92,64.92,0,0,1-.34,7.81,18.25,18.25,0,0,1-2.15,6q-3.18,6.1-17.66,6.1-15.84,0-18.56-8.37-1.37-3.84-1.36-11.77V69a64.92,64.92,0,0,1,.34-7.81,18.22,18.22,0,0,1,2.16-6Q756.86,49,771.36,49h48.45q19.92,0,38.71,14.48A52,52,0,0,1,873.68,82.53Zm-40.52,41.65q6.57-5,6.56-14.93t-6.56-15.06q-6.57-5.1-13.58-5.09h-28.3v40.06h28.53Q826.59,129.16,833.16,124.18Z"/><rect class="cls-5" x="118.86" y="15.82" width="72.29" height="226.9" rx="11.54" ry="11.54"/><circle class="cls-4" cx="153.84" cy="200.19" r="17.04"/><rect class="cls-4" x="136.8" y="36.12" width="34.07" height="32.76"/><rect class="cls-2" x="-52.51" y="93.12" width="226.9" height="72.29" rx="11.54" ry="11.54" transform="translate(-78.39 161.07) rotate(-77.61)"/><circle class="cls-4" cx="44.59" cy="198.29" r="17.04"/><rect class="cls-4" x="59.24" y="37.66" width="34.07" height="32.76" transform="translate(13.37 -15.1) rotate(12.39)"/></g></g></svg>