<svg id="Camada_1" data-name="Camada 1" xmlns="http://www.w3.org/2000/svg" xmlns:xlink="http://www.w3.org/1999/xlink" viewBox="0 0 521 107"><defs><style>.cls-1{fill:#fff;}.cls-2{fill:url(#radial-gradient);}.cls-3{opacity:0.7;}.cls-12,.cls-4,.cls-5,.cls-6{fill:#1f273d;}.cls-17,.cls-4,.cls-5,.cls-6{stroke:#dcdde0;}.cls-16,.cls-17,.cls-4,.cls-5,.cls-6{stroke-miterlimit:10;}.cls-4{stroke-width:1.98px;}.cls-5{stroke-width:1.4px;}.cls-6{stroke-width:1.11px;}.cls-7{fill:#f6a2aa;}.cls-8{fill:#ffd689;}.cls-9{fill:#dc4c32;}.cls-10{fill:#ff4c0c;}.cls-11{fill:#ededee;}.cls-13{fill:#dcdde0;}.cls-14{fill:#5d5d5d;}.cls-15,.cls-16,.cls-17{fill:none;}.cls-15,.cls-16{stroke:#ff4c0c;}.cls-15,.cls-18{stroke-linecap:round;stroke-linejoin:round;stroke-width:1.26px;}.cls-16,.cls-17{stroke-width:1.89px;}.cls-18{fill:#dee1e3;stroke:#dee1e3;}.cls-19{fill:#f7f7f7;}.cls-20{fill:#e5e3e3;}.cls-21{fill:#f2f2f2;}.cls-22{fill:#d2d4d5;}.cls-23{fill:#320c11;}.cls-24{fill:#401e21;}.cls-25{fill:#305ebc;}.cls-26{fill:#177aff;}</style><radialGradient id="radial-gradient" cx="191.65" cy="192.94" r="326.76" gradientTransform="translate(0 -0.36) scale(1.36 0.28)" gradientUnits="userSpaceOnUse"><stop offset="0.32" stop-color="#fff"/><stop offset="1" stop-color="#a2b6c1"/></radialGradient></defs><title>Prancheta 15</title><rect class="cls-1" y="0.5" width="521" height="106"/><rect class="cls-2" width="521" height="107"/><g class="cls-3"><path class="cls-1" d="M460.8,68.94a4,4,0,0,1-4.29,3.76l-38.14-2.5a4,4,0,0,1-3.76-4.3l3.84-58.6a4.06,4.06,0,0,1,4.3-3.77L460.89,6a4,4,0,0,1,3.76,4.29Z"/><line class="cls-4" x1="423.86" y1="18.25" x2="458.08" y2="20.5"/><line class="cls-4" x1="424.11" y1="14.33" x2="458.34" y2="16.58"/><line class="cls-4" x1="423.6" y1="22.17" x2="457.82" y2="24.42"/><line class="cls-4" x1="423.34" y1="26.09" x2="457.57" y2="28.34"/><line class="cls-4" x1="423.08" y1="30.01" x2="457.31" y2="32.26"/><line class="cls-4" x1="422.83" y1="33.93" x2="457.05" y2="36.18"/><line class="cls-4" x1="422.57" y1="37.85" x2="456.79" y2="40.1"/><line class="cls-5" x1="421.25" y1="57.88" x2="438.37" y2="59"/><line class="cls-6" x1="421.1" y1="60.24" x2="431.88" y2="60.94"/></g><path class="cls-1" d="M463.93,62.17a4,4,0,0,1-3.09,4.8l-37.36,8.08a4,4,0,0,1-4.8-3.09L406.27,14.55a4,4,0,0,1,3.09-4.8l37.36-8.08a4.05,4.05,0,0,1,4.8,3.1Z"/><line class="cls-4" x1="414.47" y1="23.6" x2="448" y2="16.35"/><line class="cls-4" x1="413.64" y1="19.76" x2="447.17" y2="12.51"/><line class="cls-4" x1="415.3" y1="27.44" x2="448.83" y2="20.19"/><line class="cls-4" x1="416.13" y1="31.28" x2="449.66" y2="24.03"/><line class="cls-4" x1="416.97" y1="35.12" x2="450.49" y2="27.87"/><line class="cls-4" x1="417.8" y1="38.96" x2="451.32" y2="31.71"/><line class="cls-4" x1="418.63" y1="42.8" x2="452.15" y2="35.55"/><line class="cls-5" x1="422.87" y1="62.41" x2="439.63" y2="58.79"/><line class="cls-6" x1="423.37" y1="64.72" x2="433.92" y2="62.44"/><rect class="cls-7" x="502.02" y="47.55" width="3.24" height="3.98" rx="1.33" ry="1.33" transform="translate(10.99 165.33) rotate(-18.84)"/><path class="cls-8" d="M492.16,14.45l1.8,2.4a.5.5,0,0,1-.23.82l-1.7.68a.47.47,0,0,1-.69-.44l-.15-3.05"/><path class="cls-9" d="M491.19,14.86l-.05-1.1c0-.39.15-.46.39-.15l.63.84"/><path class="cls-10" d="M502.87,48.94a.65.65,0,0,1-.29.84c-.28.1-.61-.13-.74-.49L491.31,18.42a.56.56,0,1,1,1-.35Z"/><path class="cls-9" d="M503.89,48.59a.63.63,0,0,1-.29.84.62.62,0,0,1-.73-.49L492.33,18.07a.64.64,0,0,1,.28-.84.63.63,0,0,1,.74.49Z"/><path class="cls-10" d="M504.91,48.24a.64.64,0,0,1-.28.84.63.63,0,0,1-.74-.49L493.35,17.72a.56.56,0,1,1,1-.35Z"/><rect class="cls-11" x="501.84" y="48.28" width="3.24" height="1.46" transform="translate(11.15 165.24) rotate(-18.84)"/><rect class="cls-12" x="427.17" y="20.17" width="51.99" height="75.03" rx="4.04" ry="4.04"/><rect class="cls-13" x="430.02" y="24.28" width="46.3" height="66.81" rx="4.04" ry="4.04"/><path class="cls-1" d="M464.54,88.73H434.73a3.9,3.9,0,0,1-3.89-3.89V28.18a3.91,3.91,0,0,1,3.89-3.9H471.6a3.91,3.91,0,0,1,3.89,3.9V77.12"/><path class="cls-14" d="M439.05,25.81c0,.91-.47,1.65-1,1.65s-1-.74-1-1.65V19c0-.92.46-1.66,1-1.66s1,.74,1,1.66Z"/><path class="cls-14" d="M445.11,25.81c0,.91-.47,1.65-1,1.65s-1-.74-1-1.65V19c0-.92.46-1.66,1-1.66s1,.74,1,1.66Z"/><path class="cls-14" d="M451.17,25.81c0,.91-.47,1.65-1,1.65s-1-.74-1-1.65V19c0-.92.46-1.66,1-1.66s1,.74,1,1.66Z"/><path class="cls-14" d="M457.23,25.81c0,.91-.47,1.65-1,1.65s-1-.74-1-1.65V19c0-.92.47-1.66,1-1.66s1,.74,1,1.66Z"/><path class="cls-14" d="M463.29,25.81c0,.91-.47,1.65-1,1.65s-1-.74-1-1.65V19c0-.92.46-1.66,1-1.66s1,.74,1,1.66Z"/><path class="cls-14" d="M469.35,25.81c0,.91-.46,1.65-1,1.65s-1-.74-1-1.65V19c0-.92.47-1.66,1-1.66s1,.74,1,1.66Z"/><polyline class="cls-15" points="436.6 41.63 438.38 43.83 441.84 40.37"/><line class="cls-16" x1="446.88" y1="42.1" x2="471" y2="42.1"/><polyline class="cls-15" points="436.6 50.77 438.38 52.97 441.84 49.51"/><line class="cls-16" x1="446.88" y1="51.24" x2="471" y2="51.24"/><polyline class="cls-15" points="436.6 59.91 438.38 62.11 441.84 58.65"/><line class="cls-16" x1="446.88" y1="60.38" x2="471" y2="60.38"/><polyline class="cls-15" points="436.6 69.05 438.38 71.25 441.84 67.79"/><line class="cls-16" x1="446.88" y1="69.52" x2="471" y2="69.52"/><line class="cls-17" x1="446.88" y1="78.66" x2="471" y2="78.66"/><path class="cls-18" d="M441.74,78.44a2.57,2.57,0,1,1-2.57-2.57A2.57,2.57,0,0,1,441.74,78.44Z"/><path class="cls-19" d="M464.54,88.73V81a3.91,3.91,0,0,1,3.89-3.9h7.06"/><path class="cls-20" d="M416.15,84.42a1,1,0,0,0,0-.17,37.46,37.46,0,0,1-4.68.47c-.5.56-1,1.13-1.51,1.69,2.05.88,4,.85,6.07,1.6a.5.5,0,0,0,0-.12,2,2,0,1,0,.12-3.47Z"/><path class="cls-21" d="M411.45,84.72a37.46,37.46,0,0,0,4.68-.47A15.49,15.49,0,1,0,416,88c-2-.75-4-.72-6.07-1.6C410.45,85.85,411,85.28,411.45,84.72Z"/><path class="cls-21" d="M412.14,87.36c1.07-.06,2.7.38,3.77.32C414.84,87.74,413.21,87.3,412.14,87.36Z"/><path class="cls-22" d="M408.33,77a11.48,11.48,0,1,1-16.21.93A11.48,11.48,0,0,1,408.33,77Z"/><path class="cls-21" d="M407.74,77.69a10.6,10.6,0,1,1-15,.86A10.59,10.59,0,0,1,407.74,77.69Z"/><path class="cls-23" d="M405.81,79.86a7.7,7.7,0,1,1-10.86.62A7.68,7.68,0,0,1,405.81,79.86Z"/><path class="cls-24" d="M405.75,80.4a7.25,7.25,0,1,1-10.24.59A7.25,7.25,0,0,1,405.75,80.4Z"/><path class="cls-7" d="M472.29,74.76h1.44a1.45,1.45,0,0,1,1.45,1.45v.64a1.44,1.44,0,0,1-1.44,1.44h-1.44a1.45,1.45,0,0,1-1.45-1.45V76.2a1.45,1.45,0,0,1,1.45-1.45Z" transform="translate(204.22 473.19) rotate(-65.07)"/><path class="cls-8" d="M490.42,40.29,490,43.53a.55.55,0,0,1-.8.47l-1.85-.74a.52.52,0,0,1-.21-.87l2.18-2.51"/><path class="cls-25" d="M489.35,39.88l.79-.91c.28-.32.47-.24.42.18l-.14,1.14"/><path class="cls-26" d="M472.86,75.46a.69.69,0,0,1-.86.45.7.7,0,0,1-.21-.94l15-32.21a.61.61,0,1,1,1.06.5Z"/><path class="cls-25" d="M473.93,76a.71.71,0,0,1-.86.45.71.71,0,0,1-.21-1l15-32.2a.61.61,0,1,1,1.07.5Z"/><path class="cls-26" d="M475,76.45a.61.61,0,1,1-1.06-.49l15-32.2a.61.61,0,1,1,1.06.49Z"/><rect class="cls-11" x="472.47" y="74.21" width="1.59" height="3.53" transform="translate(204.84 473.09) rotate(-65.06)"/></svg>