<svg width="16" height="17" viewBox="0 0 16 17" fill="none" xmlns="http://www.w3.org/2000/svg">
<path fill-rule="evenodd" clip-rule="evenodd" d="M7.11118 0H8.88895V9.44444H7.11118V0ZM11.92 3.39055L13.1822 2.04944C14.9067 3.60777 16 5.91222 16 8.5C16 13.1939 12.4178 17 8 17C3.58222 17 0 13.1939 0 8.5C0 5.91222 1.09333 3.60777 2.81778 2.04944L4.07111 3.38111C2.67556 4.59 1.77778 6.43166 1.77778 8.5C1.77778 12.155 4.56 15.1111 8 15.1111C11.44 15.1111 14.2222 12.155 14.2222 8.5C14.2222 6.43166 13.3244 4.59 11.92 3.39055Z" fill="#1E658F"/>
</svg>
