<svg width="34" height="35" viewBox="0 0 34 35" fill="none" xmlns="http://www.w3.org/2000/svg">
<g filter="url(#filter0_d)">
<path d="M13.3138 6.41408C15.0793 6.41408 16.7725 7.11543 18.0209 8.36384C19.2693 9.61225 19.9707 11.3055 19.9707 13.071C19.9707 14.8365 19.2693 16.5297 18.0209 17.7781C16.7725 19.0265 15.0793 19.7279 13.3138 19.7279C11.5483 19.7279 9.85506 19.0265 8.60665 17.7781C7.35824 16.5297 6.6569 14.8365 6.6569 13.071C6.6569 11.3055 7.35824 9.61225 8.60665 8.36384C9.85506 7.11543 11.5483 6.41408 13.3138 6.41408ZM13.3138 23.0563C20.6697 23.0563 26.6276 26.0353 26.6276 29.7132V33.0417H0V29.7132C0 26.0353 5.95792 23.0563 13.3138 23.0563Z" fill="white"/>
<path d="M26.9222 8.04375C26.3692 8.04375 25.8387 7.82404 25.4476 7.43294C25.0565 7.04185 24.8368 6.51142 24.8368 5.95833C24.8368 5.40525 25.0565 4.87481 25.4476 4.48372C25.8387 4.09263 26.3692 3.87292 26.9222 3.87292C27.4753 3.87292 28.0058 4.09263 28.3969 4.48372C28.788 4.87481 29.0077 5.40525 29.0077 5.95833C29.0077 6.51142 28.788 7.04185 28.3969 7.43294C28.0058 7.82404 27.4753 8.04375 26.9222 8.04375ZM31.3493 6.53629C31.3731 6.34562 31.391 6.15496 31.391 5.95833C31.391 5.76171 31.3731 5.56508 31.3493 5.3625L32.6065 4.39129C32.7197 4.30192 32.7495 4.14104 32.678 4.00996L31.4863 1.94837C31.4148 1.81729 31.254 1.76367 31.1229 1.81729L29.6392 2.41312C29.3294 2.18075 29.0077 1.97817 28.6323 1.82921L28.4118 0.25025C28.388 0.10725 28.2629 0 28.1139 0H25.7306C25.5816 0 25.4565 0.10725 25.4327 0.25025L25.2122 1.82921C24.8368 1.97817 24.5151 2.18075 24.2052 2.41312L22.7216 1.81729C22.5905 1.76367 22.4297 1.81729 22.3582 1.94837L21.1665 4.00996C21.089 4.14104 21.1248 4.30192 21.238 4.39129L22.4952 5.3625C22.4714 5.56508 22.4535 5.76171 22.4535 5.95833C22.4535 6.15496 22.4714 6.34562 22.4952 6.53629L21.238 7.52537C21.1248 7.61475 21.089 7.77562 21.1665 7.90671L22.3582 9.96829C22.4297 10.0994 22.5905 10.147 22.7216 10.0994L24.2052 9.49758C24.5151 9.73591 24.8368 9.9385 25.2122 10.0875L25.4327 11.6664C25.4565 11.8094 25.5816 11.9167 25.7306 11.9167H28.1139C28.2629 11.9167 28.388 11.8094 28.4118 11.6664L28.6323 10.0875C29.0077 9.93254 29.3294 9.73591 29.6392 9.49758L31.1229 10.0994C31.254 10.147 31.4148 10.0994 31.4863 9.96829L32.678 7.90671C32.7495 7.77562 32.7197 7.61475 32.6065 7.52537L31.3493 6.53629Z" fill="white"/>
</g>
<defs>
<filter id="filter0_d" x="0" y="0" width="33.7167" height="34.0417" filterUnits="userSpaceOnUse" color-interpolation-filters="sRGB">
<feFlood flood-opacity="0" result="BackgroundImageFix"/>
<feColorMatrix in="SourceAlpha" type="matrix" values="0 0 0 0 0 0 0 0 0 0 0 0 0 0 0 0 0 0 127 0"/>
<feOffset dx="1" dy="1"/>
<feColorMatrix type="matrix" values="0 0 0 0 0 0 0 0 0 0 0 0 0 0 0 0 0 0 0.25 0"/>
<feBlend mode="normal" in2="BackgroundImageFix" result="effect1_dropShadow"/>
<feBlend mode="normal" in="SourceGraphic" in2="effect1_dropShadow" result="shape"/>
</filter>
</defs>
</svg>
