<svg width="30" height="30" viewBox="0 0 30 30" fill="none" xmlns="http://www.w3.org/2000/svg">
<path d="M11.1715 21.7922H11.4825L11.7022 21.5722L19.7365 13.527L19.9708 13.2923L19.971 13.2925L20.5013 12.7621L21.8349 11.4286C22.4041 10.8593 22.4213 9.91079 21.8306 9.33614L20.1448 7.65033C19.5702 7.05971 18.6216 7.07685 18.0524 7.64607L16.7188 8.97966L16.484 9.2145L16.4836 9.21414L15.9533 9.74519L7.91899 17.7904L7.69968 18.01V18.3204V21.0422V21.7922H8.44968H11.1715ZM0.75 14.5055C0.75 6.90724 6.90724 0.75 14.5055 0.75C22.0931 0.75 28.2609 6.90761 28.2609 14.5055C28.2609 22.1037 22.1037 28.2609 14.5055 28.2609C6.90724 28.2609 0.75 22.1037 0.75 14.5055Z" stroke="#10A3FB" stroke-width="1.5"/>
</svg>
