<svg width="14" height="14" viewBox="0 0 14 14" fill="none" xmlns="http://www.w3.org/2000/svg">
<path d="M6.50245 0C2.91067 0 0 2.91067 0 6.50245C0 10.0942 2.91067 13.0049 6.50245 13.0049C10.0942 13.0049 13.0049 10.0942 13.0049 6.50245C13.0049 2.91067 10.0893 0 6.50245 0ZM7.18847 10.0011H5.86053V8.6732H7.18847V10.0011ZM8.7369 5.82133C8.5703 6.08104 8.21749 6.43875 7.67358 6.88956C7.39427 7.12476 7.21787 7.31097 7.14926 7.45307C7.08066 7.59517 7.05126 7.84998 7.05616 8.21259H5.85073C5.84583 8.04109 5.84583 7.93328 5.84583 7.89408C5.84583 7.50207 5.90954 7.18357 6.04184 6.92876C6.17414 6.67395 6.42895 6.39465 6.81606 6.07614C7.20317 5.76253 7.43347 5.55673 7.51187 5.45873C7.62948 5.30192 7.68828 5.13532 7.68828 4.94911C7.68828 4.68941 7.58537 4.4689 7.37957 4.2827C7.17377 4.09649 6.89446 4.00829 6.54655 4.00829C6.20844 4.00829 5.92914 4.10629 5.69883 4.2974C5.46853 4.4885 5.31662 4.78251 5.22842 5.17452L4.00829 5.02262C4.04259 4.4591 4.2827 3.97889 4.72861 3.58688C5.17452 3.19487 5.75763 2.99397 6.48285 2.99397C7.24727 2.99397 7.84998 3.19487 8.30079 3.59178C8.7516 3.98869 8.97701 4.4542 8.97701 4.98341C8.98681 5.28232 8.90351 5.56163 8.7369 5.82133Z" fill="#BDBDBD"/>
</svg>
