<svg xmlns="http://www.w3.org/2000/svg" viewBox="0 0 929.51 327.54"><defs><style>.cls-1{isolation:isolate;}.cls-2{fill:#009bd9;}.cls-3{fill:#fff;}.cls-4{opacity:0.2;mix-blend-mode:multiply;}.cls-5{fill:#f39200;}</style></defs><title>Prancheta 12 cópia 2</title><g class="cls-1"><g id="Camada_1" data-name="Camada 1"><rect class="cls-2" x="206.33" y="15.82" width="226.9" height="226.9" rx="20.44" ry="20.44"/><rect class="cls-2" x="450.69" y="16.04" width="226.9" height="226.9" rx="20.44" ry="20.44"/><rect class="cls-2" x="694.38" y="16.04" width="226.9" height="226.9" rx="20.44" ry="20.44"/><path class="cls-3" d="M223.77,297.76q-5.82-1.67-8.47-4.11a7.86,7.86,0,0,1-2.66-6,8.28,8.28,0,0,1,3.25-6.71,12.84,12.84,0,0,1,8.42-2.65,14.1,14.1,0,0,1,6.31,1.37,10.39,10.39,0,0,1,4.29,3.77,9.65,9.65,0,0,1,1.52,5.25h-4.55a6.26,6.26,0,0,0-2-4.9,8.06,8.06,0,0,0-5.59-1.79,8.21,8.21,0,0,0-5.22,1.48,4.91,4.91,0,0,0-1.87,4.09A4.42,4.42,0,0,0,219,291.1a17.27,17.27,0,0,0,6.06,2.65,28.22,28.22,0,0,1,6.69,2.66,10,10,0,0,1,3.58,3.38,8.63,8.63,0,0,1,1.17,4.55,8,8,0,0,1-3.25,6.68c-2.17,1.68-5.07,2.51-8.7,2.51a16.17,16.17,0,0,1-6.6-1.35,11.07,11.07,0,0,1-4.73-3.71,9.05,9.05,0,0,1-1.66-5.35h4.55a5.89,5.89,0,0,0,2.3,4.91,9.69,9.69,0,0,0,6.14,1.8,8.84,8.84,0,0,0,5.49-1.46,4.74,4.74,0,0,0,1.91-4,4.66,4.66,0,0,0-1.77-3.9A20.4,20.4,0,0,0,223.77,297.76Z"/><path class="cls-3" d="M243.09,280.79a2.6,2.6,0,0,1,.64-1.79,2.92,2.92,0,0,1,3.86,0,2.57,2.57,0,0,1,.66,1.79,2.49,2.49,0,0,1-.66,1.77,2.57,2.57,0,0,1-4.5-1.77Zm4.71,32.27h-4.36v-25.5h4.36Z"/><path class="cls-3" d="M271.08,306.3a3.23,3.23,0,0,0-1.33-2.75,12.89,12.89,0,0,0-4.65-1.68,22.29,22.29,0,0,1-5.25-1.7,7.48,7.48,0,0,1-2.88-2.36,5.62,5.62,0,0,1-.93-3.25,6.63,6.63,0,0,1,2.65-5.31,10.4,10.4,0,0,1,6.78-2.16,10.59,10.59,0,0,1,7,2.24,7.1,7.1,0,0,1,2.7,5.72h-4.38A3.93,3.93,0,0,0,269.3,292a5.66,5.66,0,0,0-3.83-1.3,5.93,5.93,0,0,0-3.73,1,3.27,3.27,0,0,0-1.34,2.71,2.66,2.66,0,0,0,1.25,2.38,15.61,15.61,0,0,0,4.51,1.53,24.16,24.16,0,0,1,5.3,1.74,7.74,7.74,0,0,1,3,2.44,6,6,0,0,1,1,3.48,6.52,6.52,0,0,1-2.73,5.48,11.46,11.46,0,0,1-7.1,2.06,12.88,12.88,0,0,1-5.42-1.08,8.8,8.8,0,0,1-3.69-3,7.3,7.3,0,0,1-1.33-4.21h4.36a4.53,4.53,0,0,0,1.75,3.48,6.82,6.82,0,0,0,4.33,1.29,7,7,0,0,0,4-1A3.07,3.07,0,0,0,271.08,306.3Z"/><path class="cls-3" d="M288.49,281.38v6.18h4.76v3.37h-4.76v15.84a3.57,3.57,0,0,0,.63,2.3,2.69,2.69,0,0,0,2.17.76,10.48,10.48,0,0,0,2.08-.28v3.52a12.86,12.86,0,0,1-3.35.46,5.42,5.42,0,0,1-4.41-1.76,7.61,7.61,0,0,1-1.48-5V290.93h-4.65v-3.37h4.65v-6.18Z"/><path class="cls-3" d="M310.37,313.53a11.14,11.14,0,0,1-8.44-3.4,12.64,12.64,0,0,1-3.25-9.11v-.8a15.28,15.28,0,0,1,1.45-6.78,11.34,11.34,0,0,1,4.05-4.67,10.23,10.23,0,0,1,5.65-1.68,9.55,9.55,0,0,1,7.73,3.27q2.76,3.28,2.76,9.38v1.82H303a9,9,0,0,0,2.21,6.09,6.91,6.91,0,0,0,5.36,2.33,7.57,7.57,0,0,0,3.91-1,9.93,9.93,0,0,0,2.81-2.5l2.66,2.08Q316.78,313.53,310.37,313.53Zm-.54-22.86a5.81,5.81,0,0,0-4.43,1.92,9.36,9.36,0,0,0-2.22,5.39H316v-.33a8.29,8.29,0,0,0-1.79-5.15A5.48,5.48,0,0,0,309.83,290.67Z"/><path class="cls-3" d="M330.92,287.56l.11,2.83a9.43,9.43,0,0,1,7.57-3.3c3.57,0,6,1.36,7.29,4.1a9.49,9.49,0,0,1,3.31-3,9.71,9.71,0,0,1,4.82-1.13q8.39,0,8.53,8.88v17.09h-4.36V296.23a5.89,5.89,0,0,0-1.25-4.09q-1.24-1.35-4.2-1.35a5.78,5.78,0,0,0-4,1.45,5.87,5.87,0,0,0-1.86,3.9v16.92h-4.38V296.35q0-5.57-5.45-5.56a5.82,5.82,0,0,0-5.87,3.65v18.62h-4.36v-25.5Z"/><path class="cls-3" d="M386.32,313.06a9.31,9.31,0,0,1-.61-2.68,9.75,9.75,0,0,1-7.26,3.15,9,9,0,0,1-6.19-2.13,6.89,6.89,0,0,1-2.41-5.41,7.22,7.22,0,0,1,3-6.19c2-1.47,4.85-2.2,8.52-2.2h4.24v-2a4.93,4.93,0,0,0-1.37-3.65,5.5,5.5,0,0,0-4-1.35,6.33,6.33,0,0,0-3.91,1.18,3.46,3.46,0,0,0-1.58,2.85h-4.39a6.06,6.06,0,0,1,1.36-3.69,9.18,9.18,0,0,1,3.68-2.82,12.4,12.4,0,0,1,5.1-1,10.09,10.09,0,0,1,6.91,2.2,8,8,0,0,1,2.59,6.07V307.1a14.34,14.34,0,0,0,.9,5.59v.37Zm-7.23-3.32a7.67,7.67,0,0,0,3.89-1.06,6.47,6.47,0,0,0,2.66-2.76v-5.23h-3.42q-8,0-8,4.69a4,4,0,0,0,1.36,3.2A5.29,5.29,0,0,0,379.09,309.74Z"/><path class="cls-3" d="M410.62,300.1q0-5.88,2.79-9.44a9.47,9.47,0,0,1,14.38-.51v-13.3h4.36v36.21h-4l-.21-2.73a8.88,8.88,0,0,1-7.29,3.2,8.68,8.68,0,0,1-7.22-3.63,15.1,15.1,0,0,1-2.8-9.47Zm4.37.49a11.25,11.25,0,0,0,1.79,6.79,5.77,5.77,0,0,0,5,2.45,6.38,6.38,0,0,0,6.06-3.72V294.39a6.42,6.42,0,0,0-6-3.6,5.81,5.81,0,0,0-5,2.47C415.58,294.91,415,297.36,415,300.59Z"/><path class="cls-3" d="M451,313.53a11.14,11.14,0,0,1-8.44-3.4,12.64,12.64,0,0,1-3.26-9.11v-.8a15.41,15.41,0,0,1,1.45-6.78,11.29,11.29,0,0,1,4.06-4.67,10.2,10.2,0,0,1,5.64-1.68,9.57,9.57,0,0,1,7.74,3.27q2.75,3.28,2.75,9.38v1.82H443.61a9.07,9.07,0,0,0,2.21,6.09,6.93,6.93,0,0,0,5.36,2.33,7.55,7.55,0,0,0,3.91-1,9.8,9.8,0,0,0,2.81-2.5l2.66,2.08Q457.37,313.53,451,313.53Zm-.55-22.86a5.82,5.82,0,0,0-4.43,1.92,9.35,9.35,0,0,0-2.21,5.39h12.77v-.33a8.23,8.23,0,0,0-1.79-5.15A5.47,5.47,0,0,0,450.4,290.67Z"/><path class="cls-3" d="M506.81,308.56a10.47,10.47,0,0,1-4.87,3.74,19.73,19.73,0,0,1-7.27,1.23,14.12,14.12,0,0,1-7.45-2,13.17,13.17,0,0,1-5-5.6,19.29,19.29,0,0,1-1.83-8.42v-3q0-7.76,3.62-12t10.17-4.27A13,13,0,0,1,502.8,281a11.93,11.93,0,0,1,4,7.79h-4.53c-.84-4.56-3.55-6.84-8.1-6.84a8,8,0,0,0-6.9,3.2q-2.34,3.19-2.37,9.26v2.81q0,5.77,2.64,9.18a8.54,8.54,0,0,0,7.14,3.41,15.66,15.66,0,0,0,4.46-.56,6.88,6.88,0,0,0,3.16-1.91v-7.69h-7.95V296h12.45Z"/><path class="cls-3" d="M525.7,313.53a11.16,11.16,0,0,1-8.44-3.4A12.68,12.68,0,0,1,514,301v-.8a15.28,15.28,0,0,1,1.45-6.78,11.29,11.29,0,0,1,4.06-4.67,10.18,10.18,0,0,1,5.64-1.68,9.55,9.55,0,0,1,7.73,3.27q2.76,3.28,2.76,9.38v1.82H518.37a9.07,9.07,0,0,0,2.21,6.09,6.91,6.91,0,0,0,5.36,2.33,7.57,7.57,0,0,0,3.91-1,9.8,9.8,0,0,0,2.81-2.5l2.66,2.08Q532.11,313.53,525.7,313.53Zm-.54-22.86a5.81,5.81,0,0,0-4.43,1.92,9.36,9.36,0,0,0-2.22,5.39h12.78v-.33a8.29,8.29,0,0,0-1.79-5.15A5.48,5.48,0,0,0,525.16,290.67Z"/><path class="cls-3" d="M557,306.3a3.21,3.21,0,0,0-1.34-2.75,12.75,12.75,0,0,0-4.64-1.68,22.39,22.39,0,0,1-5.26-1.7,7.52,7.52,0,0,1-2.87-2.36,5.62,5.62,0,0,1-.93-3.25,6.63,6.63,0,0,1,2.65-5.31,10.4,10.4,0,0,1,6.78-2.16,10.61,10.61,0,0,1,7,2.24,7.1,7.1,0,0,1,2.7,5.72h-4.38a3.93,3.93,0,0,0-1.52-3.08,5.68,5.68,0,0,0-3.83-1.3,5.93,5.93,0,0,0-3.73,1,3.27,3.27,0,0,0-1.34,2.71,2.64,2.64,0,0,0,1.25,2.38,15.49,15.49,0,0,0,4.51,1.53,23.87,23.87,0,0,1,5.29,1.74,7.78,7.78,0,0,1,3,2.44,6,6,0,0,1,1,3.48,6.53,6.53,0,0,1-2.74,5.48,11.43,11.43,0,0,1-7.09,2.06,12.93,12.93,0,0,1-5.43-1.08,8.71,8.71,0,0,1-3.68-3,7.31,7.31,0,0,1-1.34-4.21h4.36a4.54,4.54,0,0,0,1.76,3.48,6.79,6.79,0,0,0,4.33,1.29,7,7,0,0,0,4-1A3.07,3.07,0,0,0,557,306.3Z"/><path class="cls-3" d="M574.4,281.38v6.18h4.76v3.37H574.4v15.84a3.56,3.56,0,0,0,.64,2.3,2.68,2.68,0,0,0,2.17.76,10.4,10.4,0,0,0,2.07-.28v3.52a12.73,12.73,0,0,1-3.34.46,5.42,5.42,0,0,1-4.41-1.76,7.61,7.61,0,0,1-1.49-5V290.93H565.4v-3.37H570v-6.18Z"/><path class="cls-3" d="M601.45,313.06a9.31,9.31,0,0,1-.61-2.68,9.75,9.75,0,0,1-7.26,3.15,9,9,0,0,1-6.19-2.13A6.89,6.89,0,0,1,585,306a7.21,7.21,0,0,1,3-6.19q3-2.21,8.53-2.2h4.24v-2A4.93,4.93,0,0,0,599.4,292a5.5,5.5,0,0,0-4-1.35,6.31,6.31,0,0,0-3.91,1.18,3.44,3.44,0,0,0-1.58,2.85h-4.39a6.06,6.06,0,0,1,1.36-3.69,9.18,9.18,0,0,1,3.68-2.82,12.36,12.36,0,0,1,5.1-1,10.09,10.09,0,0,1,6.91,2.2,8,8,0,0,1,2.59,6.07V307.1a14.34,14.34,0,0,0,.9,5.59v.37Zm3-35.45a5.82,5.82,0,0,1-1.45,4.12,4.69,4.69,0,0,1-3.62,1.58,5.23,5.23,0,0,1-1.67-.23,9.06,9.06,0,0,1-1.85-1,7.6,7.6,0,0,0-1.65-.88,4.14,4.14,0,0,0-1.17-.16,2.17,2.17,0,0,0-1.65.75,2.66,2.66,0,0,0-.68,1.89l-2.93-.16a6.16,6.16,0,0,1,1.43-4.17,4.82,4.82,0,0,1,5.1-1.42,11.83,11.83,0,0,1,1.8.92,10.06,10.06,0,0,0,1.73.9,4,4,0,0,0,1.33.21,2.13,2.13,0,0,0,1.69-.8,2.87,2.87,0,0,0,.67-1.86Zm-10.25,32.13a7.67,7.67,0,0,0,3.89-1.06,6.47,6.47,0,0,0,2.66-2.76v-5.23h-3.42q-8,0-8,4.69a4,4,0,0,0,1.36,3.2A5.28,5.28,0,0,0,594.22,309.74Z"/><path class="cls-3" d="M612.26,300.07a15.12,15.12,0,0,1,1.47-6.74,10.84,10.84,0,0,1,10.1-6.24,10.75,10.75,0,0,1,8.43,3.6c2.15,2.41,3.22,5.6,3.22,9.6v.3a15.24,15.24,0,0,1-1.43,6.69,10.85,10.85,0,0,1-4.07,4.6,11.22,11.22,0,0,1-6.1,1.65,10.72,10.72,0,0,1-8.4-3.6,13.8,13.8,0,0,1-3.22-9.55Zm4.39.52a11,11,0,0,0,2,6.82,6.32,6.32,0,0,0,5.27,2.57,6.25,6.25,0,0,0,5.28-2.61q2-2.61,2-7.3a11,11,0,0,0-2-6.8,6.36,6.36,0,0,0-5.3-2.6,6.27,6.27,0,0,0-5.21,2.57C617.3,295,616.65,297.4,616.65,300.59Z"/><path class="cls-3" d="M661,299.63v13.43h-4.53V278.74h12.66c3.75,0,6.7,1,8.83,2.88a9.72,9.72,0,0,1,3.19,7.61q0,5-3.12,7.7t-8.95,2.7Zm0-3.7h8.13a8.08,8.08,0,0,0,5.56-1.72,6.25,6.25,0,0,0,1.93-4.94,6.48,6.48,0,0,0-1.93-4.92,7.65,7.65,0,0,0-5.3-1.91H661Z"/><path class="cls-3" d="M698,313.53a11.14,11.14,0,0,1-8.44-3.4,12.64,12.64,0,0,1-3.25-9.11v-.8a15.28,15.28,0,0,1,1.45-6.78,11.2,11.2,0,0,1,4-4.67,10.23,10.23,0,0,1,5.65-1.68,9.57,9.57,0,0,1,7.73,3.27q2.76,3.28,2.76,9.38v1.82H690.65a9,9,0,0,0,2.2,6.09,6.94,6.94,0,0,0,5.36,2.33,7.61,7.61,0,0,0,3.92-1,9.76,9.76,0,0,0,2.8-2.5l2.67,2.08Q704.39,313.53,698,313.53Zm-.54-22.86a5.81,5.81,0,0,0-4.43,1.92,9.29,9.29,0,0,0-2.22,5.39h12.78v-.33a8.3,8.3,0,0,0-1.8-5.15A5.45,5.45,0,0,0,697.44,290.67Z"/><path class="cls-3" d="M713.36,300.1q0-5.88,2.78-9.44a9.47,9.47,0,0,1,14.38-.51v-13.3h4.36v36.21h-4l-.21-2.73a8.86,8.86,0,0,1-7.28,3.2,8.7,8.7,0,0,1-7.23-3.63,15.1,15.1,0,0,1-2.79-9.47Zm4.36.49a11.32,11.32,0,0,0,1.79,6.79,5.79,5.79,0,0,0,5,2.45,6.36,6.36,0,0,0,6.06-3.72V294.39a6.41,6.41,0,0,0-6-3.6,5.82,5.82,0,0,0-5,2.47C718.32,294.91,717.72,297.36,717.72,300.59Z"/><path class="cls-3" d="M758.84,313.06a9.31,9.31,0,0,1-.61-2.68,9.75,9.75,0,0,1-7.26,3.15,9,9,0,0,1-6.19-2.13,6.9,6.9,0,0,1-2.42-5.41,7.22,7.22,0,0,1,3-6.19q3-2.21,8.53-2.2h4.24v-2a4.93,4.93,0,0,0-1.37-3.65,5.5,5.5,0,0,0-4-1.35,6.31,6.31,0,0,0-3.91,1.18,3.44,3.44,0,0,0-1.58,2.85h-4.39a6.06,6.06,0,0,1,1.36-3.69,9.18,9.18,0,0,1,3.68-2.82,12.36,12.36,0,0,1,5.1-1,10.09,10.09,0,0,1,6.91,2.2,8,8,0,0,1,2.59,6.07V307.1a14.34,14.34,0,0,0,.9,5.59v.37Zm-7.23-3.32a7.67,7.67,0,0,0,3.89-1.06,6.47,6.47,0,0,0,2.66-2.76v-5.23h-3.42q-8,0-8,4.69a4,4,0,0,0,1.36,3.2A5.28,5.28,0,0,0,751.61,309.74Z"/><path class="cls-3" d="M769.77,300.1q0-6,2.76-9.49a9.51,9.51,0,0,1,14.59-.22l.21-2.83h4v24.89a10.35,10.35,0,0,1-2.93,7.8,10.86,10.86,0,0,1-7.89,2.86,13.14,13.14,0,0,1-5.39-1.18,9.36,9.36,0,0,1-4-3.23l2.27-2.62a8.52,8.52,0,0,0,6.86,3.47,6.67,6.67,0,0,0,5-1.8,6.81,6.81,0,0,0,1.78-5v-2.19a9,9,0,0,1-7.14,3,8.71,8.71,0,0,1-7.25-3.6Q769.77,306.31,769.77,300.1Zm4.38.49a11.42,11.42,0,0,0,1.77,6.78,5.75,5.75,0,0,0,5,2.46,6.4,6.4,0,0,0,6.06-3.74V294.44a6.46,6.46,0,0,0-6-3.65,5.81,5.81,0,0,0-5,2.47C774.75,294.91,774.15,297.36,774.15,300.59Z"/><path class="cls-3" d="M798.18,300.07a15,15,0,0,1,1.48-6.74,11.06,11.06,0,0,1,4.1-4.62,11.19,11.19,0,0,1,6-1.62,10.78,10.78,0,0,1,8.43,3.6c2.14,2.41,3.21,5.6,3.21,9.6v.3a15.24,15.24,0,0,1-1.42,6.69,10.8,10.8,0,0,1-4.08,4.6,11.21,11.21,0,0,1-6.09,1.65,10.75,10.75,0,0,1-8.41-3.6,13.85,13.85,0,0,1-3.22-9.55Zm4.39.52a10.9,10.9,0,0,0,2,6.82,6.67,6.67,0,0,0,10.55,0q1.95-2.61,1.95-7.3a10.9,10.9,0,0,0-2-6.8,6.34,6.34,0,0,0-5.29-2.6,6.26,6.26,0,0,0-5.21,2.57Q802.57,295.8,802.57,300.59Zm9.17-23.74H817l-6.32,6.93h-3.51Z"/><path class="cls-3" d="M827.28,300.1q0-6,2.76-9.49a9.51,9.51,0,0,1,14.59-.22l.22-2.83h4v24.89a10.36,10.36,0,0,1-2.94,7.8,10.82,10.82,0,0,1-7.88,2.86,13.22,13.22,0,0,1-5.4-1.18,9.39,9.39,0,0,1-4-3.23l2.26-2.62a8.54,8.54,0,0,0,6.86,3.47,6.65,6.65,0,0,0,5-1.8,6.81,6.81,0,0,0,1.78-5v-2.19a9,9,0,0,1-7.14,3,8.73,8.73,0,0,1-7.25-3.6Q827.29,306.31,827.28,300.1Zm4.39.49a11.42,11.42,0,0,0,1.77,6.78,5.73,5.73,0,0,0,4.95,2.46,6.38,6.38,0,0,0,6.05-3.74V294.44a6.45,6.45,0,0,0-6-3.65,5.78,5.78,0,0,0-5,2.47C832.27,294.91,831.67,297.36,831.67,300.59Z"/><path class="cls-3" d="M856.88,280.79a2.61,2.61,0,0,1,.65-1.79,2.42,2.42,0,0,1,1.92-.73,2.45,2.45,0,0,1,1.93.73,2.57,2.57,0,0,1,.66,1.79,2.49,2.49,0,0,1-.66,1.77,2.51,2.51,0,0,1-1.93.71,2.48,2.48,0,0,1-1.92-.71A2.53,2.53,0,0,1,856.88,280.79Zm4.71,32.27h-4.36v-25.5h4.36Z"/><path class="cls-3" d="M880.25,310a6.29,6.29,0,0,0,4.08-1.42,5,5,0,0,0,1.93-3.53h4.13a7.9,7.9,0,0,1-1.51,4.17,10.05,10.05,0,0,1-3.71,3.16,10.8,10.8,0,0,1-4.92,1.17,10.52,10.52,0,0,1-8.29-3.47q-3.08-3.48-3.07-9.51v-.73a15.23,15.23,0,0,1,1.37-6.63,10.44,10.44,0,0,1,3.92-4.5,11.15,11.15,0,0,1,6.05-1.6,10.21,10.21,0,0,1,7.13,2.57,9.2,9.2,0,0,1,3,6.67h-4.13a6,6,0,0,0-1.87-4.07,5.84,5.84,0,0,0-4.16-1.59,6.1,6.1,0,0,0-5.15,2.39c-1.22,1.6-1.83,3.9-1.83,6.92v.83c0,2.93.6,5.2,1.81,6.78A6.14,6.14,0,0,0,880.25,310Z"/><path class="cls-3" d="M912.48,313.06a9.31,9.31,0,0,1-.61-2.68,9.74,9.74,0,0,1-7.26,3.15,9,9,0,0,1-6.19-2.13A6.89,6.89,0,0,1,896,306a7.22,7.22,0,0,1,3-6.19q3-2.21,8.52-2.2h4.24v-2a4.89,4.89,0,0,0-1.37-3.65,5.5,5.5,0,0,0-4-1.35,6.33,6.33,0,0,0-3.91,1.18,3.46,3.46,0,0,0-1.58,2.85h-4.38a6,6,0,0,1,1.35-3.69,9.18,9.18,0,0,1,3.68-2.82,12.4,12.4,0,0,1,5.1-1,10.09,10.09,0,0,1,6.91,2.2,8,8,0,0,1,2.59,6.07V307.1a14.34,14.34,0,0,0,.9,5.59v.37Zm-7.23-3.32a7.64,7.64,0,0,0,3.89-1.06,6.47,6.47,0,0,0,2.66-2.76v-5.23h-3.42q-8,0-8,4.69a3.93,3.93,0,0,0,1.37,3.2A5.25,5.25,0,0,0,905.25,309.74Z"/><path class="cls-4" d="M270.1,195.06l49.68,47.66h94s19.44-1.26,19.44-23.83V113L363.58,58.87l-69,3.07L288,88.72s4.55,23.74,9.09,25.76,18.6,11.62,22.69,12.63,28.34,13.13,28.34,13.13v21.22l-1.52,19.2-17.68,6.57L289,184.7Z"/><path class="cls-4" d="M514.46,195.06l49.69,47.66h94s19.44-1.26,19.44-23.83V105.43L623,63.74l-84.05-1.8-6.56,26.78s-19.56,41.14-15,43.16S528.42,166,532.51,167s18.69,15.15,18.69,15.15l26.09,3.57L591,180.66l-17.68,6.57-39.91-2.53Z"/><path class="cls-4" d="M755,210.26l33.83,32.46h113s19.44-1.26,19.44-23.83V109.94L858.52,63.51l-75.89-1.57-6.57,26.78s-19.56,41.14-15,43.16S772.11,166,776.2,167s.81,7.07.81,7.07l5.56,6.06,6.59.07L781,185l-3.91-.25Z"/><path class="cls-3" d="M265.34,189.26q-5.89-7.24-5.89-13T269.18,161q5.67-5.43,12-5.43t17.66,11.32a34.38,34.38,0,0,0,9.05,7.36q5.88,3.51,10.87,3.5,21,0,21.06-17.2,0-5.2-5.78-8.71a42.18,42.18,0,0,0-14.37-5.1,123.93,123.93,0,0,1-18.57-5.09,122.56,122.56,0,0,1-18.56-8.27q-8.61-4.74-14.37-15T262.39,93.5q0-19.92,14.83-34.75t40.41-14.82a82.36,82.36,0,0,1,24.79,3.51q11.2,3.51,15.5,7.12l5.66,4.31q7,6.56,7,11.09t-5.43,12.45q-7.69,11.32-15.85,11.32c-3.17,0-7.09-1.5-11.77-4.53a25.09,25.09,0,0,1-2.6-2.27A38,38,0,0,0,331.44,84q-4.76-2.94-12.12-2.94a20.44,20.44,0,0,0-12.22,3.51,11.33,11.33,0,0,0-4.87,9.74q0,6.21,5.77,10.07a35.77,35.77,0,0,0,14.38,5.2,170.13,170.13,0,0,1,18.79,4.2,115.88,115.88,0,0,1,18.79,6.9q8.61,4.06,14.37,14.15t5.78,24.79q0,14.71-5.89,25.92a44.69,44.69,0,0,1-15.39,17.31,70.19,70.19,0,0,1-39.16,12,76.33,76.33,0,0,1-20.16-2.6,54.16,54.16,0,0,1-15.39-6.46q-12-7.23-16.75-14Z"/><path class="cls-3" d="M577.25,114.91H617.1q12.21.45,14.93,6.33,2.28,4.31,2.27,12.68v49.81q0,7.23-6.34,13.81-19,19.68-57,19.69-33.75,0-58.64-25.47t-24.9-61.46q0-36,25.36-60.1T572.5,46.09q26.7,0,50.48,17.65,6.1,4.53,6.11,10.08t-5.21,12.79q-8.82,12-16.07,12-4.29,0-13.81-6.22t-22.64-6.23q-17.21,0-30.56,12.12T527.44,130A45.49,45.49,0,0,0,541,163.23q13.58,13.71,30.79,13.7a58.68,58.68,0,0,0,22.41-4.07V148.18H576.35c-4.68,0-8-.6-10-1.81a8.46,8.46,0,0,1-3.84-5.32,39.16,39.16,0,0,1-.91-9.51,36.68,36.68,0,0,1,1-9.62,7.5,7.5,0,0,1,3.73-5Q570.46,114.9,577.25,114.91Z"/><path class="cls-3" d="M873.68,82.53a59.82,59.82,0,0,1,5.89,26.72,59,59,0,0,1-5.89,26.59,52,52,0,0,1-15.16,18.9q-18.79,14.49-38.94,14.5h-28.3v25.58a64.92,64.92,0,0,1-.34,7.81,18.25,18.25,0,0,1-2.15,6q-3.18,6.1-17.66,6.1-15.84,0-18.56-8.37-1.37-3.84-1.36-11.77V69a64.92,64.92,0,0,1,.34-7.81,18.22,18.22,0,0,1,2.16-6Q756.86,49,771.36,49h48.45q19.92,0,38.71,14.48A52,52,0,0,1,873.68,82.53Zm-40.52,41.65q6.57-5,6.56-14.93t-6.56-15.06q-6.57-5.1-13.58-5.09h-28.3v40.06h28.53Q826.59,129.16,833.16,124.18Z"/><rect class="cls-5" x="118.86" y="15.82" width="72.29" height="226.9" rx="11.54" ry="11.54"/><circle class="cls-3" cx="153.84" cy="200.19" r="17.04"/><rect class="cls-3" x="136.8" y="36.12" width="34.07" height="32.76"/><rect class="cls-2" x="-52.51" y="93.12" width="226.9" height="72.29" rx="11.54" ry="11.54" transform="translate(-78.39 161.07) rotate(-77.61)"/><circle class="cls-3" cx="44.59" cy="198.29" r="17.04"/><rect class="cls-3" x="59.24" y="37.66" width="34.07" height="32.76" transform="translate(13.37 -15.1) rotate(12.39)"/></g></g></svg>