<svg width="81" height="81" viewBox="0 0 81 81" fill="none" xmlns="http://www.w3.org/2000/svg">
<g filter="url(#filter0_d)">
<path d="M20.696 16.3561L20.696 56.1854L60.5254 16.3561L20.696 16.3561Z" fill="#10A3FB"/>
</g>
<path d="M34.8631 34.7294L34.2342 35.3309C34.1066 35.4585 33.9517 35.5223 33.7694 35.5223C33.5871 35.5223 33.4321 35.4585 33.3045 35.3309L27.9998 30.0262C27.8722 29.8986 27.8084 29.7437 27.8084 29.5614C27.8084 29.3791 27.8722 29.2242 27.9998 29.0966L33.3045 23.7919C33.4321 23.6643 33.5871 23.6005 33.7694 23.6005C33.9517 23.6005 34.1066 23.6643 34.2342 23.7919L34.8631 24.3934C34.9907 24.521 35.0454 24.676 35.0272 24.8583C35.0272 25.0406 34.9634 25.1955 34.8358 25.3231L31.5545 28.4677H39.4022C39.5845 28.4677 39.7394 28.5315 39.867 28.6591C39.9946 28.7867 40.0584 28.9416 40.0584 29.1239V29.9989C40.0584 30.1812 39.9946 30.3361 39.867 30.4637C39.7394 30.5913 39.5845 30.6552 39.4022 30.6552H31.5545L34.8358 33.7997C34.9634 33.9273 35.0272 34.0822 35.0272 34.2645C35.0454 34.4468 34.9907 34.6018 34.8631 34.7294Z" fill="white"/>
<defs>
<filter id="filter0_d" x="0.695312" y="0.356079" width="79.8294" height="79.8294" filterUnits="userSpaceOnUse" color-interpolation-filters="sRGB">
<feFlood flood-opacity="0" result="BackgroundImageFix"/>
<feColorMatrix in="SourceAlpha" type="matrix" values="0 0 0 0 0 0 0 0 0 0 0 0 0 0 0 0 0 0 127 0"/>
<feOffset dy="4"/>
<feGaussianBlur stdDeviation="10"/>
<feColorMatrix type="matrix" values="0 0 0 0 0 0 0 0 0 0 0 0 0 0 0 0 0 0 0.05 0"/>
<feBlend mode="normal" in2="BackgroundImageFix" result="effect1_dropShadow"/>
<feBlend mode="normal" in="SourceGraphic" in2="effect1_dropShadow" result="shape"/>
</filter>
</defs>
</svg>
